<?xml version="1.0" encoding="UTF-8"?>
<svg width="34px" height="34px" viewBox="0 0 34 34" version="1.1" xmlns="http://www.w3.org/2000/svg" xmlns:xlink="http://www.w3.org/1999/xlink">
    <title>Chat/Close X</title>
    <g id="Chat/Close-X" stroke="none" stroke-width="1" fill="none" fill-rule="evenodd">
        <g id="Group" transform="translate(8.000000, 8.000000)" fill="#1C2029" fill-rule="nonzero">
            <path d="M17.5606602,0.439339828 C18.109835,0.988514613 18.1441584,1.85757702 17.6636304,2.44673776 L17.5606602,2.56066017 L11.12,9 L17.5606602,15.4393398 C18.1464466,16.0251263 18.1464466,16.9748737 17.5606602,17.5606602 C17.0114854,18.109835 16.142423,18.1441584 15.5532622,17.6636304 L15.4393398,17.5606602 L9,11.12 L2.56066017,17.5606602 C1.97487373,18.1464466 1.02512627,18.1464466 0.439339828,17.5606602 C-0.109834957,17.0114854 -0.144158381,16.142423 0.336369556,15.5532622 L0.439339828,15.4393398 L6.879,9 L0.439339828,2.56066017 C-0.146446609,1.97487373 -0.146446609,1.02512627 0.439339828,0.439339828 C0.988514613,-0.109834957 1.85757702,-0.144158381 2.44673776,0.336369556 L2.56066017,0.439339828 L9,6.879 L15.4393398,0.439339828 C16.0251263,-0.146446609 16.9748737,-0.146446609 17.5606602,0.439339828 Z" id="Combined-Shape"></path>
        </g>
    </g>
</svg>