<?xml version="1.0" encoding="UTF-8"?>
<svg width="27px" height="26px" viewBox="0 0 27 26" version="1.1" xmlns="http://www.w3.org/2000/svg" xmlns:xlink="http://www.w3.org/1999/xlink">
    <title>Delete Chip</title>
    <g id="Symbols" stroke="none" stroke-width="1" fill="none" fill-rule="evenodd">
        <g id="Chat/Select-Chip" transform="translate(-113.000000, -5.000000)" fill="#959699">
            <g id="Group-2" transform="translate(113.500000, 5.098626)">
                <path d="M12.9267449,-3.55271368e-15 C20.0659889,-3.55271368e-15 25.8534897,5.78750082 25.8534897,12.9267449 C25.8534897,20.0659889 20.0659889,25.8534897 12.9267449,25.8534897 C5.78750082,25.8534897 1.10134124e-13,20.0659889 1.10134124e-13,12.9267449 C1.10134124e-13,5.78750082 5.78750082,-3.55271368e-15 12.9267449,-3.55271368e-15 Z M8.00060007,6.59740524 C7.60830886,6.29238035 7.0410778,6.32010988 6.68059384,6.68059384 C6.29006955,7.07111813 6.29006955,7.70428311 6.68059384,8.09480741 L6.68059384,8.09480741 L11.5117006,12.9267006 L6.68059384,17.7586823 L6.59740524,17.8528897 C6.29238035,18.2451809 6.32010988,18.8124119 6.68059384,19.1728959 C7.07111813,19.5634202 7.70428311,19.5634202 8.09480741,19.1728959 L8.09480741,19.1728959 L12.9267006,14.3417006 L17.7586823,19.1728959 L17.8528897,19.2560845 C18.2451809,19.5611094 18.8124119,19.5333799 19.1728959,19.1728959 C19.5634202,18.7823716 19.5634202,18.1492066 19.1728959,17.7586823 L19.1728959,17.7586823 L14.3417006,12.9267006 L19.1728959,8.09480741 L19.2560845,8.00060007 C19.5611094,7.60830886 19.5333799,7.0410778 19.1728959,6.68059384 C18.7823716,6.29006955 18.1492066,6.29006955 17.7586823,6.68059384 L17.7586823,6.68059384 L12.9267006,11.5117006 L8.09480741,6.68059384 Z" id="Delete-Chip"></path>
            </g>
        </g>
    </g>
</svg>